HIERARCHY
ROOT Hips
{
	OFFSET 0.000000 0.000000 0.000000 
	CHANNELS 6 Xposition Yposition Zposition Zrotation Yrotation Xrotation
	JOINT LeftUpLeg
	{
		OFFSET 1.363060 -1.794630 0.839290 
		CHANNELS 3 Zrotation Yrotation Xrotation
		JOINT LeftLeg
		{
			OFFSET 2.448110 -6.726130 0.000000 
			CHANNELS 3 Zrotation Yrotation Xrotation
			JOINT LeftFoot
			{
				OFFSET 2.562200 -7.039590 0.000000 
				CHANNELS 3 Zrotation Yrotation Xrotation
				JOINT LeftToeBase
				{
					OFFSET 0.157640 -0.433110 2.322550 
					CHANNELS 3 Zrotation Yrotation Xrotation
					End Site
					{
						OFFSET 0.000000 0.000000 0.000000 
					}
				}
			}
		}
	}
	JOINT RightUpLeg
	{
		OFFSET -1.305520 -1.794630 0.839290 
		CHANNELS 3 Zrotation Yrotation Xrotation
		JOINT RightLeg
		{
			OFFSET -2.542530 -6.985550 0.000000 
			CHANNELS 3 Zrotation Yrotation Xrotation
			JOINT RightFoot
			{
				OFFSET -2.568260 -7.056230 0.000000 
				CHANNELS 3 Zrotation Yrotation Xrotation
				JOINT RightToeBase
				{
					OFFSET -0.164730 -0.452590 2.363150 
					CHANNELS 3 Zrotation Yrotation Xrotation
					End Site
					{
						OFFSET 0.000000 0.000000 0.000000 
					}
				}
			}
		}
	}
	JOINT Spine
	{
		OFFSET 0.028270 2.035590 -0.193380 
		CHANNELS 3 Zrotation Yrotation Xrotation
		JOINT Spine1
		{
			OFFSET 0.056720 2.048850 -0.042750 
			CHANNELS 3 Zrotation Yrotation Xrotation
			JOINT Neck1
			{
				OFFSET -0.054170 1.746240 0.172020 
				CHANNELS 3 Zrotation Yrotation Xrotation
				JOINT Head
				{
					OFFSET 0.104070 1.761360 -0.123970 
					CHANNELS 3 Zrotation Yrotation Xrotation
					End Site
					{
						OFFSET 0.000000 0.000000 0.000000 
					}
				}
			}
			JOINT LeftArm
			{
				OFFSET 3.362410 1.200890 -0.311210 
				CHANNELS 3 Zrotation Yrotation Xrotation
				JOINT LeftForeArm
				{
					OFFSET 4.983000 -0.000000 -0.000000 
					CHANNELS 3 Zrotation Yrotation Xrotation
					JOINT LeftHand
					{
						OFFSET 3.483560 -0.000000 -0.000000 
						CHANNELS 3 Zrotation Yrotation Xrotation
						JOINT LeftHandIndex1
						{
							OFFSET 0.715260 -0.000000 -0.000000 
							CHANNELS 3 Zrotation Yrotation Xrotation
							End Site
							{
								OFFSET 0.000000 0.000000 0.000000 
							}
						}
					}
				}
			}
			JOINT RightArm
			{
				OFFSET -3.136600 1.374050 -0.404650 
				CHANNELS 3 Zrotation Yrotation Xrotation
				JOINT RightForeArm
				{
					OFFSET -5.241900 -0.000000 -0.000000 
					CHANNELS 3 Zrotation Yrotation Xrotation
					JOINT RightHand
					{
						OFFSET -3.444170 -0.000000 -0.000000 
						CHANNELS 3 Zrotation Yrotation Xrotation
						JOINT RightHandIndex1
						{
							OFFSET -0.622530 -0.000000 -0.000000 
							CHANNELS 3 Zrotation Yrotation Xrotation
							End Site
							{
								OFFSET 0.000000 0.000000 0.000000 
							}
						}
					}
				}
			}
		}
	}
}
MOTION
Frames: 10
Frame Time: 0.041667
1.290327 20.952217 3.924731 -0.356882 -0.402369 1.720193 -16.204180 4.129525 -30.207190 -0.323274 7.146868 18.857094 1.470316 4.202176 25.685995 0.290400 -3.465500 -9.577500 16.114355 5.716207 -25.986695 -0.318016 -7.372265 19.532379 0.219095 -8.984008 16.942598 -0.146100 -2.463000 6.787100 1.669514 0.415637 -1.880093 1.782437 -0.083015 4.097164 1.710865 -0.890581 30.378080 0.111000 -0.112100 10.376900 -90.443787 0.971886 32.737335 9.928221 -21.413733 -2.079023 -0.053151 -0.736923 -19.034168 -7.125000 0.000000 0.000000 95.104353 4.475229 4.685129 -8.443827 18.979299 -1.601208 0.934735 0.674825 40.727720 7.125000 0.000000 0.000000 
1.307872 20.718654 4.227663 -0.196253 -0.444808 1.279060 -16.450527 4.627362 -29.718674 -0.538122 6.586614 17.324760 1.608141 4.028205 26.367188 0.307000 -3.562300 -9.848400 15.648596 5.994301 -25.767609 -0.229192 -7.157251 18.890828 0.154779 -9.059186 17.585239 -0.159700 -2.574800 7.097200 1.674883 0.334474 -1.897221 1.782961 -0.123364 4.238776 1.602296 -0.817819 30.696268 0.088700 -0.087400 10.452400 -90.109940 1.593721 33.259781 10.148197 -21.818966 -2.176264 -0.045660 -0.742132 -19.376835 -7.125000 0.000000 0.000000 95.033435 4.073561 4.761786 -8.428737 18.993485 -1.598417 0.934308 0.680994 40.615515 7.125000 0.000000 0.000000 
1.325620 20.473530 4.532117 -0.025543 -0.479927 0.804344 -16.712724 5.127517 -29.211770 -0.697237 6.127968 16.088800 1.742558 3.892274 27.073112 0.317700 -3.623000 -10.018300 15.202088 6.225052 -25.530854 -0.161021 -6.989093 18.391353 0.071342 -9.073211 18.293714 -0.179300 -2.727400 7.520700 1.679951 0.249341 -1.916407 1.780895 -0.165917 4.382632 1.488068 -0.736003 31.024245 0.067200 -0.060400 10.535700 -89.752812 2.192721 33.794037 10.368247 -22.221837 -2.275568 -0.038264 -0.746912 -19.721465 -7.125000 0.000000 0.000000 94.950667 3.691463 4.845841 -8.424454 19.025540 -1.599459 0.933791 0.687850 40.463079 7.125000 0.000000 0.000000 
1.343266 20.216844 4.837584 0.143734 -0.500255 0.290071 -16.963336 5.589417 -28.648577 -0.808853 5.769941 15.135862 1.870268 3.833687 27.813583 0.316500 -3.616500 -10.000300 14.794966 6.394651 -25.265197 -0.113840 -6.871867 18.044501 -0.027733 -9.041745 19.056494 -0.204200 -2.909300 8.026300 1.685317 0.160795 -1.935687 1.774843 -0.210270 4.533144 1.389299 -0.654589 31.350855 0.055800 -0.034800 10.623000 -89.384851 2.763744 34.285814 10.592261 -22.627716 -2.378209 -0.031027 -0.751372 -20.040630 -7.125000 0.000000 0.000000 94.859260 3.330935 4.927568 -8.429564 19.073251 -1.604024 0.933445 0.694526 40.283122 7.125000 0.000000 0.000000 
1.360507 19.947785 5.143153 0.303503 -0.501087 -0.262618 -17.176006 5.963979 -27.999576 -0.879699 5.510746 14.453053 1.982218 3.880582 28.547422 0.305300 -3.552300 -9.820500 14.435247 6.526923 -24.959416 -0.089251 -6.810988 17.862333 -0.130202 -9.005325 19.823061 -0.231200 -3.094900 8.543000 1.692671 0.067478 -1.957061 1.771738 -0.257650 4.675141 1.297579 -0.577563 31.671399 0.048200 -0.012400 10.714500 -89.011039 3.287962 34.733914 10.803706 -23.008631 -2.476423 -0.024902 -0.755460 -20.353273 -7.125000 0.000000 0.000000 94.762697 2.991477 4.998401 -8.446070 19.137418 -1.612363 0.933360 0.701188 40.096393 7.125000 0.000000 0.000000 
1.376531 19.665744 5.447708 0.449058 -0.473873 -0.855864 -17.331145 6.203819 -27.241437 -0.914360 5.349998 14.035181 2.067762 4.033768 29.207103 0.293300 -3.482500 -9.625100 14.127985 6.640244 -24.600652 -0.089020 -6.811002 17.857792 -0.226685 -8.979054 20.540115 -0.253100 -3.237100 8.939500 1.702466 -0.031792 -1.979950 1.775978 -0.309063 4.801843 1.215363 -0.507301 31.970797 0.043900 0.006500 10.810000 -88.644588 3.757884 35.086492 11.008372 -23.373014 -2.572327 -0.019469 -0.759160 -20.621913 -7.125000 0.000000 0.000000 94.663684 2.684033 5.057865 -8.472257 19.213764 -1.623878 0.934138 0.706634 39.925188 7.125000 0.000000 0.000000 
1.391135 19.369404 5.750438 0.575268 -0.419615 -1.490833 -17.416277 6.283141 -26.380612 -0.914937 5.294060 13.903476 2.125207 4.226331 29.734636 0.288400 -3.453800 -9.544900 13.878784 6.767473 -24.177328 -0.115658 -6.877368 18.047190 -0.308012 -8.967058 21.152125 -0.263500 -3.302300 9.121500 1.715590 -0.135389 -2.005170 1.794800 -0.363934 4.901924 1.156365 -0.447643 32.234754 0.049000 0.020000 10.905200 -88.283898 4.149872 35.361478 11.190200 -23.694874 -2.657978 -0.014974 -0.762386 -20.867409 -7.125000 0.000000 0.000000 94.560801 2.410098 5.108722 -8.506030 19.297241 -1.637502 0.935859 0.710883 39.799672 7.125000 0.000000 0.000000 
1.403204 19.058257 6.050632 0.680269 -0.342449 -2.174429 -17.432530 6.207521 -25.463635 -0.879422 5.361605 14.118500 2.164466 4.334719 30.108345 0.287800 -3.449800 -9.533800 13.692540 6.943892 -23.678271 -0.172790 -7.014600 18.446397 -0.365830 -8.979276 21.617480 -0.262900 -3.298800 9.111700 1.732168 -0.238174 -2.032332 1.834869 -0.420047 4.965332 1.115255 -0.399518 32.446727 0.058000 0.029000 10.998100 -87.933075 4.461680 35.532961 11.352743 -23.979538 -2.734696 -0.011212 -0.764906 -21.053781 -7.125000 0.000000 0.000000 94.459736 2.177413 5.144106 -8.543387 19.378981 -1.651497 0.938998 0.713153 39.752783 7.125000 0.000000 0.000000 
1.412534 18.731492 6.347783 0.764608 -0.252392 -2.900865 -17.443400 6.065476 -24.593256 -0.814480 5.564405 14.784796 2.200229 3.592937 29.874047 0.293500 -3.483500 -9.627900 13.592158 7.171933 -23.124131 -0.261018 -7.224825 19.086842 -0.382881 -8.781533 21.585356 -0.210600 -2.954900 8.153300 1.751227 -0.331725 -2.063736 1.895649 -0.472117 4.978744 1.107535 -0.370920 32.591043 0.078200 0.029800 11.079800 -87.581796 4.687400 35.640785 11.491751 -24.220002 -2.800620 -0.007200 -0.766404 -21.203269 -7.125000 0.000000 0.000000 94.363447 1.983285 5.153089 -8.578086 19.447925 -1.663767 0.943140 0.713461 39.802214 7.125000 0.000000 0.000000 
1.418619 18.388196 6.640878 0.843135 -0.152866 -3.673374 -17.509822 5.942709 -23.875571 -0.700398 5.940202 16.005224 2.178579 1.992283 28.684561 0.292300 -3.476800 -9.609100 13.596806 7.394700 -22.554260 -0.382257 -7.521362 20.037599 -0.414093 -7.986699 21.055801 -0.159400 -2.572100 7.089700 1.769978 -0.410967 -2.101248 1.977797 -0.517371 4.925633 1.133493 -0.365555 32.646032 0.105600 0.023000 11.137200 -87.228561 4.838416 35.676709 11.609473 -24.418939 -2.855747 -0.004325 -0.766804 -21.285769 -7.125000 0.000000 0.000000 94.281525 1.815325 5.152414 -8.611259 19.505356 -1.674510 0.948053 0.711962 39.925070 7.125000 0.000000 0.000000 
